<svg width="100" height="100" viewBox="0 0 100 100" xmlns="http://www.w3.org/2000/svg">
    <!-- Curvy organic button mask shape - subtle flowing form with soft indents -->
    <!-- This creates a smooth, fractal-inspired silhouette for nav buttons -->
    <path d="M 20,25
             C 18,30 16,38 16,45
             Q 16,52 18,58
             C 19,62 21,66 24,69
             Q 28,73 33,76
             C 38,79 44,80 50,80
             Q 56,80 62,78
             C 68,76 73,72 77,67
             Q 81,62 83,56
             C 84,50 84,44 83,38
             Q 82,32 79,27
             C 76,22 71,18 65,16
             Q 58,14 50,14
             C 42,14 35,16 29,19
             Q 23,22 20,25
             Z
             M 22,35
             C 21,37 20,39 20,41
             Q 20,43 21,44
             C 22,45 23,45 24,44
             Q 25,43 25,41
             C 25,39 24,37 23,36
             Q 22,35 22,35
             Z
             M 78,35
             C 79,37 80,39 80,41
             Q 80,43 79,44
             C 78,45 77,45 76,44
             Q 75,43 75,41
             C 75,39 76,37 77,36
             Q 78,35 78,35
             Z" 
          fill="white"/>
</svg>
