<?xml version="1.0" encoding="UTF-8"?>
<!-- Logo Simple 1: Bold Text-Based SSY Logo with Gradient -->
<svg xmlns="http://www.w3.org/2000/svg" viewBox="0 0 200 80" width="200" height="80">
  <defs>
    <!-- Primary gradient - oceanic teal to warm accent -->
    <linearGradient id="logo1-primary" x1="0%" y1="0%" x2="100%" y2="100%">
      <stop offset="0%" stop-color="#157389"/>
      <stop offset="50%" stop-color="#115362"/>
      <stop offset="100%" stop-color="#9A4A23"/>
    </linearGradient>
    
    <!-- Accent gradient for highlights -->
    <linearGradient id="logo1-accent" x1="0%" y1="0%" x2="100%" y2="0%">
      <stop offset="0%" stop-color="#E5B457"/>
      <stop offset="100%" stop-color="#D66D0F"/>
    </linearGradient>
  </defs>
  
  <!-- Main SSY Text -->
  <g class="logo-main">
    <!-- S -->
    <path fill="url(#logo1-primary)" d="M 25,20 Q 35,15 45,20 L 45,28 Q 35,23 25,28 L 25,35 Q 35,30 45,35 L 45,50 Q 35,55 25,50 L 25,42 L 35,42 L 35,45 Q 38,43 40,45 L 40,38 Q 35,40 30,38 Q 25,36 25,30 L 25,20 Z"/>
    
    <!-- S (second) -->
    <path fill="url(#logo1-primary)" d="M 80,20 Q 90,15 100,20 L 100,28 Q 90,23 80,28 L 80,35 Q 90,30 100,35 L 100,50 Q 90,55 80,50 L 80,42 L 90,42 L 90,45 Q 93,43 95,45 L 95,38 Q 90,40 85,38 Q 80,36 80,30 L 80,20 Z"/>
    
    <!-- Y -->
    <path fill="url(#logo1-primary)" d="M 130,20 L 140,35 L 150,20 L 160,20 L 145,42 L 145,55 L 135,55 L 135,42 L 120,20 Z"/>
    
    <!-- Accent underline -->
    <rect x="20" y="62" width="160" height="3" fill="url(#logo1-accent)" opacity="0.9"/>
    
    <!-- Subtle fractal accent dots -->
    <circle cx="30" cy="15" r="2" fill="#E5B457" opacity="0.8"/>
    <circle cx="85" cy="15" r="2" fill="#E5B457" opacity="0.8"/>
    <circle cx="145" cy="15" r="2" fill="#E5B457" opacity="0.8"/>
  </g>
</svg>
