<?xml version="1.0" encoding="UTF-8"?>
<!-- Logo Simple 1 - Monochrome Variant (uses currentColor) -->
<svg xmlns="http://www.w3.org/2000/svg" viewBox="0 0 200 80" width="200" height="80">
  <!-- Main SSY Text - simplified for monochrome -->
  <g fill="currentColor" class="logo-mono">
    <!-- S -->
    <path d="M 25,20 Q 35,15 45,20 L 45,28 Q 35,23 25,28 L 25,35 Q 35,30 45,35 L 45,50 Q 35,55 25,50 L 25,42 L 35,42 L 35,45 Q 38,43 40,45 L 40,38 Q 35,40 30,38 Q 25,36 25,30 L 25,20 Z"/>
    
    <!-- S (second) -->
    <path d="M 80,20 Q 90,15 100,20 L 100,28 Q 90,23 80,28 L 80,35 Q 90,30 100,35 L 100,50 Q 90,55 80,50 L 80,42 L 90,42 L 90,45 Q 93,43 95,45 L 95,38 Q 90,40 85,38 Q 80,36 80,30 L 80,20 Z"/>
    
    <!-- Y -->
    <path d="M 130,20 L 140,35 L 150,20 L 160,20 L 145,42 L 145,55 L 135,55 L 135,42 L 120,20 Z"/>
    
    <!-- Underline -->
    <rect x="20" y="62" width="160" height="3"/>
  </g>
</svg>
