<?xml version="1.0" encoding="UTF-8"?>
<!-- Logo Simple 4: Abstract Fractal Wave -->
<svg xmlns="http://www.w3.org/2000/svg" viewBox="0 0 160 80" width="160" height="80">
  <defs>
    <!-- Wave gradient -->
    <linearGradient id="logo4-wave1" x1="0%" y1="50%" x2="100%" y2="50%">
      <stop offset="0%" stop-color="#115362"/>
      <stop offset="50%" stop-color="#157389"/>
      <stop offset="100%" stop-color="#82B29D"/>
    </linearGradient>
    
    <!-- Wave gradient 2 -->
    <linearGradient id="logo4-wave2" x1="0%" y1="50%" x2="100%" y2="50%">
      <stop offset="0%" stop-color="#9A4A23"/>
      <stop offset="50%" stop-color="#D66D0F"/>
      <stop offset="100%" stop-color="#E5B457"/>
    </linearGradient>
    
    <!-- Fractal gradient -->
    <linearGradient id="logo4-fractal" x1="0%" y1="0%" x2="100%" y2="100%">
      <stop offset="0%" stop-color="#0C3747"/>
      <stop offset="100%" stop-color="#572A14"/>
    </linearGradient>
  </defs>
  
  <!-- Top wave - cool colors -->
  <path fill="url(#logo4-wave1)" opacity="0.9"
        d="M 5,25 Q 20,15 35,25 T 65,25 T 95,25 T 125,25 T 155,25 L 155,35 Q 140,45 125,35 T 95,35 T 65,35 T 35,35 T 5,35 Z"/>
  
  <!-- Middle wave - warm colors -->
  <path fill="url(#logo4-wave2)" opacity="0.85"
        d="M 5,40 Q 20,30 35,40 T 65,40 T 95,40 T 125,40 T 155,40 L 155,50 Q 140,60 125,50 T 95,50 T 65,50 T 35,50 T 5,50 Z"/>
  
  <!-- Bottom wave - blend -->
  <path fill="url(#logo4-fractal)" opacity="0.7"
        d="M 5,55 Q 20,45 35,55 T 65,55 T 95,55 T 125,55 T 155,55 L 155,65 Q 140,75 125,65 T 95,65 T 65,65 T 35,65 T 5,65 Z"/>
  
  <!-- Fractal accent particles -->
  <g opacity="0.8">
    <circle cx="25" cy="20" r="2" fill="#82B29D"/>
    <circle cx="55" cy="18" r="1.5" fill="#E5B457"/>
    <circle cx="85" cy="20" r="2" fill="#82B29D"/>
    <circle cx="115" cy="18" r="1.5" fill="#E5B457"/>
    <circle cx="145" cy="20" r="2" fill="#82B29D"/>
  </g>
  
  <!-- Lower accent particles -->
  <g opacity="0.7">
    <circle cx="15" cy="68" r="1.5" fill="#9A4A23"/>
    <circle cx="45" cy="70" r="1.8" fill="#157389"/>
    <circle cx="80" cy="68" r="1.5" fill="#9A4A23"/>
    <circle cx="110" cy="70" r="1.8" fill="#157389"/>
    <circle cx="140" cy="68" r="1.5" fill="#9A4A23"/>
  </g>
  
  <!-- Energy flow lines -->
  <g fill="none" stroke="#115362" stroke-width="0.5" opacity="0.4">
    <path d="M 0,10 Q 40,5 80,10 Q 120,15 160,10"/>
    <path d="M 0,75 Q 40,70 80,75 Q 120,80 160,75"/>
  </g>
</svg>
