<?xml version="1.0" encoding="UTF-8"?>
<!-- Logo Simple 3 - Monochrome Variant (uses currentColor) -->
<svg xmlns="http://www.w3.org/2000/svg" viewBox="0 0 100 120" width="100" height="120">
  <g fill="currentColor" class="logo-mono">
    <!-- Main central crystal -->
    <path d="M 50,10 L 70,40 L 60,60 L 50,70 L 40,60 L 30,40 Z"/>
    
    <!-- Left crystal shard -->
    <path d="M 30,40 L 20,55 L 25,70 L 35,60 Z" opacity="0.85"/>
    
    <!-- Right crystal shard -->
    <path d="M 70,40 L 80,55 L 75,70 L 65,60 Z" opacity="0.85"/>
    
    <!-- Bottom main crystal -->
    <path d="M 50,70 L 60,85 L 55,100 L 50,110 L 45,100 L 40,85 Z" opacity="0.9"/>
    
    <!-- Bottom left accent -->
    <path d="M 40,85 L 30,95 L 35,105 L 43,100 Z" opacity="0.75"/>
    
    <!-- Bottom right accent -->
    <path d="M 60,85 L 70,95 L 65,105 L 57,100 Z" opacity="0.75"/>
    
    <!-- Central glow point -->
    <circle cx="50" cy="50" r="3" opacity="0.9"/>
  </g>
</svg>
